<svg xmlns="http://www.w3.org/2000/svg" viewBox="0 0 240 240" role="img" aria-label="芝麻">
  <rect width="240" height="240" rx="30" fill="#fff"/>
  <rect x="8" y="8" width="224" height="224" rx="26" fill="#fff7df" stroke="#e3ebf3" stroke-width="2"/>
  <circle cx="196" cy="42" r="18" fill="#c7a233" opacity=".12"/>
  <ellipse cx="120" cy="196" rx="62" ry="12" fill="#17202a" opacity=".08"/>
  <ellipse cx="89" cy="99" rx="7" ry="11" fill="#f1dfa0" stroke="#725b17" stroke-width="2" transform="rotate(-30 89 99)"/><ellipse cx="117" cy="91" rx="7" ry="11" fill="#f1dfa0" stroke="#725b17" stroke-width="2" transform="rotate(20 117 91)"/><ellipse cx="145" cy="102" rx="7" ry="11" fill="#f1dfa0" stroke="#725b17" stroke-width="2" transform="rotate(55 145 102)"/><ellipse cx="103" cy="128" rx="7" ry="11" fill="#f1dfa0" stroke="#725b17" stroke-width="2" transform="rotate(45 103 128)"/><ellipse cx="134" cy="134" rx="7" ry="11" fill="#f1dfa0" stroke="#725b17" stroke-width="2" transform="rotate(-25 134 134)"/><ellipse cx="84" cy="151" rx="7" ry="11" fill="#f1dfa0" stroke="#725b17" stroke-width="2" transform="rotate(10 84 151)"/><ellipse cx="160" cy="154" rx="7" ry="11" fill="#f1dfa0" stroke="#725b17" stroke-width="2" transform="rotate(35 160 154)"/><ellipse cx="121" cy="167" rx="7" ry="11" fill="#f1dfa0" stroke="#725b17" stroke-width="2" transform="rotate(-45 121 167)"/><path d="M73 183c36 13 76 13 113 0" stroke="#c7a233" stroke-width="8" opacity=".45" stroke-linecap="round"/>
</svg>
